<?xml version="1.0" encoding="UTF-8"?>
<svg width="24" height="24" version="1.1" viewBox="-10 0 24 24" xml:space="preserve" xmlns="http://www.w3.org/2000/svg"><path d="m-8.7383 0c-0.51968-2e-3 -0.97972 0.34789-1.1523 0.77344-0.17254 0.42543-0.085067 0.99499 0.28906 1.3555l5.5508 5.416-3.1035 3.1797c-2.5813 2.646-2.7839 7.5754-2.8457 11.996v0.0137c-2e-3 0.51967 0.34595 0.97972 0.77148 1.1523 0.42544 0.17254 0.99696 0.08702 1.3574-0.28711l5.4141-5.5488 3.1816 3.1035c2.6461 2.5812 7.5754 2.7839 11.996 2.8457h0.0137c0.51967 2e-3 0.97972-0.34595 1.1523-0.77148 0.17254-0.42543 0.08703-0.99696-0.28711-1.3574l-5.5508-5.416 3.1055-3.1816c2.5813-2.6461 2.7839-7.5754 2.8457-11.996v-0.01563c2e-3 -0.51965-0.34593-0.97971-0.77148-1.1523-0.42543-0.17254-0.99695-0.085076-1.3574 0.28906l-5.416 5.5527-3.1816-3.1055c-2.6461-2.5813-7.5754-2.7839-11.996-2.8457h-0.00586zm2.1113 2.1426c1.4395 0.0645 2.8612 0.16767 4.1348 0.39648 1.9007 0.34147 3.4562 0.93888 4.3242 1.7852 0.98571 0.96486 2.0248 3.8229-0.085937 5.9863l-4.3516-4.2461h-0.00195zm18.484 1.2305c-0.0645 1.4395-0.16769 2.8612-0.39648 4.1348-0.34147 1.9007-0.93889 3.4562-1.7852 4.3242-0.95514 0.97578-3.8224 2.0271-5.9883-0.085937zm-11.545 8.8789-8.1699 8.373c0.0646-1.4395 0.16572-2.8611 0.39453-4.1348 0.34147-1.9007 0.94083-3.4562 1.7871-4.3242 1.1361-1.1584 3.9717-1.8815 5.9883 0.08594zm1.9375 1.4355 8.373 8.1699c-1.4395-0.0645-2.8592-0.16768-4.1328-0.39648-1.9007-0.34147-3.4562-0.93888-4.3242-1.7852-0.98595-0.96509-2.0261-3.8254 0.083984-5.9883z"/></svg>
